<?xml version="1.0" encoding="UTF-8"?> <svg xmlns="http://www.w3.org/2000/svg" id="Capa_1" data-name="Capa 1" viewBox="0 0 150 150"><defs><style>.cls-1{fill:#006937;}.cls-2{fill:#76bc21;}.cls-3{fill:#fff;}</style></defs><path class="cls-1" d="M37.33,0h75.34A37.33,37.33,0,0,1,150,37.33v75.34A37.33,37.33,0,0,1,112.67,150H37.33A37.33,37.33,0,0,1,0,112.67V37.33A37.33,37.33,0,0,1,37.33,0Z"></path><path class="cls-2" d="M90.22,49.76a430.27,430.27,0,0,0-51,60.84h0A475.61,475.61,0,0,1,127.4,49.46v0C115,49,102.6,49,90.22,49.76"></path><path class="cls-3" d="M28.08,122.87h0c16.43-27,35.48-52.41,57.6-75C83,40.93,77.53,27.13,77.53,27.13A217.78,217.78,0,0,0,57.3,54.24,240.4,240.4,0,0,0,22.6,64.76s14.31,9.71,21.33,14.73c-5.94,13.74-15.3,41.7-15.85,43.38M106.45,119v0q-6.06-22.53-12-45.09Q79.84,83.31,65.83,93.7,86.34,106,106.45,119"></path></svg> 